# Blender v2.79 (sub 0) OBJ File: 'nums.blend'
# www.blender.org
mtllib 7.mtl
o Text
v 1.485000 0.072500 0.250000
v 2.110000 1.472500 0.250000
v 1.372500 1.472500 0.250000
v 1.372500 1.705000 0.250000
v 2.475000 1.705000 0.250000
v 1.702500 -0.022500 0.250000
v 0.544855 -0.015310 0.250000
v 0.469676 0.005857 0.250000
v 0.399844 0.040391 0.250000
v 0.335741 0.087685 0.250000
v 0.277749 0.147133 0.250000
v 0.226250 0.218125 0.250000
v 0.181626 0.300055 0.250000
v 0.144259 0.392315 0.250000
v 0.114531 0.494297 0.250000
v 0.092824 0.605394 0.250000
v 0.079520 0.724997 0.250000
v 0.075000 0.852500 0.250000
v 0.079520 0.980003 0.250000
v 0.092824 1.099607 0.250000
v 0.114531 1.210703 0.250000
v 0.144259 1.312685 0.250000
v 0.181626 1.404945 0.250000
v 0.226250 1.486875 0.250000
v 0.277749 1.557868 0.250000
v 0.335741 1.617315 0.250000
v 0.399844 1.664609 0.250000
v 0.469676 1.699144 0.250000
v 0.544855 1.720310 0.250000
v 0.625000 1.727500 0.250000
v 0.705145 1.720310 0.250000
v 0.780324 1.699144 0.250000
v 0.850156 1.664610 0.250000
v 0.914259 1.617315 0.250000
v 0.972251 1.557868 0.250000
v 1.023750 1.486875 0.250000
v 1.068374 1.404945 0.250000
v 1.105741 1.312685 0.250000
v 1.135469 1.210703 0.250000
v 1.157176 1.099607 0.250000
v 1.170480 0.980003 0.250000
v 1.175000 0.852500 0.250000
v 1.170480 0.724997 0.250000
v 1.157176 0.605394 0.250000
v 1.135469 0.494297 0.250000
v 1.105741 0.392315 0.250000
v 1.068374 0.300055 0.250000
v 1.023750 0.218125 0.250000
v 0.972251 0.147133 0.250000
v 0.914259 0.087685 0.250000
v 0.850156 0.040391 0.250000
v 0.780324 0.005856 0.250000
v 0.705145 -0.015310 0.250000
v 0.625000 -0.022500 0.250000
v 0.579086 1.489997 0.250000
v 0.536435 1.475185 0.250000
v 0.497188 1.450859 0.250000
v 0.461482 1.417315 0.250000
v 0.429456 1.374847 0.250000
v 0.401250 1.323750 0.250000
v 0.377002 1.264320 0.250000
v 0.356852 1.196852 0.250000
v 0.340937 1.121641 0.250000
v 0.329398 1.038982 0.250000
v 0.322373 0.949170 0.250000
v 0.320000 0.852500 0.250000
v 0.322373 0.755831 0.250000
v 0.329398 0.666019 0.250000
v 0.340937 0.583359 0.250000
v 0.356852 0.508148 0.250000
v 0.377002 0.440680 0.250000
v 0.401250 0.381250 0.250000
v 0.429456 0.330153 0.250000
v 0.461481 0.287685 0.250000
v 0.497187 0.254141 0.250000
v 0.536435 0.229815 0.250000
v 0.579086 0.215003 0.250000
v 0.625000 0.210000 0.250000
v 0.670914 0.215003 0.250000
v 0.713565 0.229815 0.250000
v 0.752813 0.254141 0.250000
v 0.788518 0.287685 0.250000
v 0.820544 0.330153 0.250000
v 0.848750 0.381250 0.250000
v 0.872998 0.440680 0.250000
v 0.893148 0.508148 0.250000
v 0.909063 0.583359 0.250000
v 0.920602 0.666019 0.250000
v 0.927627 0.755830 0.250000
v 0.930000 0.852500 0.250000
v 0.927627 0.949169 0.250000
v 0.920602 1.038981 0.250000
v 0.909063 1.121641 0.250000
v 0.893148 1.196852 0.250000
v 0.872998 1.264320 0.250000
v 0.848750 1.323750 0.250000
v 0.820544 1.374847 0.250000
v 0.788519 1.417315 0.250000
v 0.752813 1.450859 0.250000
v 0.713565 1.475185 0.250000
v 0.670914 1.489997 0.250000
v 0.625000 1.495000 0.250000
v 1.485000 0.072500 -0.250000
v 2.110000 1.472500 -0.250000
v 1.372500 1.472500 -0.250000
v 1.372500 1.705000 -0.250000
v 2.475000 1.705000 -0.250000
v 1.702500 -0.022500 -0.250000
v 0.544855 -0.015310 -0.250000
v 0.469676 0.005857 -0.250000
v 0.399844 0.040391 -0.250000
v 0.335741 0.087685 -0.250000
v 0.277749 0.147133 -0.250000
v 0.226250 0.218125 -0.250000
v 0.181626 0.300055 -0.250000
v 0.144259 0.392315 -0.250000
v 0.114531 0.494297 -0.250000
v 0.092824 0.605394 -0.250000
v 0.079520 0.724997 -0.250000
v 0.075000 0.852500 -0.250000
v 0.079520 0.980003 -0.250000
v 0.092824 1.099607 -0.250000
v 0.114531 1.210703 -0.250000
v 0.144259 1.312685 -0.250000
v 0.181626 1.404945 -0.250000
v 0.226250 1.486875 -0.250000
v 0.277749 1.557868 -0.250000
v 0.335741 1.617315 -0.250000
v 0.399844 1.664609 -0.250000
v 0.469676 1.699144 -0.250000
v 0.544855 1.720310 -0.250000
v 0.625000 1.727500 -0.250000
v 0.705145 1.720310 -0.250000
v 0.780324 1.699144 -0.250000
v 0.850156 1.664610 -0.250000
v 0.914259 1.617315 -0.250000
v 0.972251 1.557868 -0.250000
v 1.023750 1.486875 -0.250000
v 1.068374 1.404945 -0.250000
v 1.105741 1.312685 -0.250000
v 1.135469 1.210703 -0.250000
v 1.157176 1.099607 -0.250000
v 1.170480 0.980003 -0.250000
v 1.175000 0.852500 -0.250000
v 1.170480 0.724997 -0.250000
v 1.157176 0.605394 -0.250000
v 1.135469 0.494297 -0.250000
v 1.105741 0.392315 -0.250000
v 1.068374 0.300055 -0.250000
v 1.023750 0.218125 -0.250000
v 0.972251 0.147133 -0.250000
v 0.914259 0.087685 -0.250000
v 0.850156 0.040391 -0.250000
v 0.780324 0.005856 -0.250000
v 0.705145 -0.015310 -0.250000
v 0.625000 -0.022500 -0.250000
v 0.579086 1.489997 -0.250000
v 0.536435 1.475185 -0.250000
v 0.497188 1.450859 -0.250000
v 0.461482 1.417315 -0.250000
v 0.429456 1.374847 -0.250000
v 0.401250 1.323750 -0.250000
v 0.377002 1.264320 -0.250000
v 0.356852 1.196852 -0.250000
v 0.340937 1.121641 -0.250000
v 0.329398 1.038982 -0.250000
v 0.322373 0.949170 -0.250000
v 0.320000 0.852500 -0.250000
v 0.322373 0.755831 -0.250000
v 0.329398 0.666019 -0.250000
v 0.340937 0.583359 -0.250000
v 0.356852 0.508148 -0.250000
v 0.377002 0.440680 -0.250000
v 0.401250 0.381250 -0.250000
v 0.429456 0.330153 -0.250000
v 0.461481 0.287685 -0.250000
v 0.497187 0.254141 -0.250000
v 0.536435 0.229815 -0.250000
v 0.579086 0.215003 -0.250000
v 0.625000 0.210000 -0.250000
v 0.670914 0.215003 -0.250000
v 0.713565 0.229815 -0.250000
v 0.752813 0.254141 -0.250000
v 0.788518 0.287685 -0.250000
v 0.820544 0.330153 -0.250000
v 0.848750 0.381250 -0.250000
v 0.872998 0.440680 -0.250000
v 0.893148 0.508148 -0.250000
v 0.909063 0.583359 -0.250000
v 0.920602 0.666019 -0.250000
v 0.927627 0.755830 -0.250000
v 0.930000 0.852500 -0.250000
v 0.927627 0.949169 -0.250000
v 0.920602 1.038981 -0.250000
v 0.909063 1.121641 -0.250000
v 0.893148 1.196852 -0.250000
v 0.872998 1.264320 -0.250000
v 0.848750 1.323750 -0.250000
v 0.820544 1.374847 -0.250000
v 0.788519 1.417315 -0.250000
v 0.752813 1.450859 -0.250000
v 0.713565 1.475185 -0.250000
v 0.670914 1.489997 -0.250000
v 0.625000 1.495000 -0.250000
v 0.544855 -0.015310 -0.250000
v 0.544855 -0.015310 0.250000
v 0.469676 0.005857 -0.250000
v 0.469676 0.005857 0.250000
v 0.399844 0.040391 -0.250000
v 0.399844 0.040391 0.250000
v 0.335741 0.087685 -0.250000
v 0.335741 0.087685 0.250000
v 0.277749 0.147133 -0.250000
v 0.277749 0.147133 0.250000
v 0.226250 0.218125 -0.250000
v 0.226250 0.218125 0.250000
v 0.181626 0.300055 -0.250000
v 0.181626 0.300055 0.250000
v 0.144259 0.392315 -0.250000
v 0.144259 0.392315 0.250000
v 0.114531 0.494297 -0.250000
v 0.114531 0.494297 0.250000
v 0.092824 0.605394 -0.250000
v 0.092824 0.605394 0.250000
v 0.079520 0.724997 -0.250000
v 0.079520 0.724997 0.250000
v 0.075000 0.852500 -0.250000
v 0.075000 0.852500 0.250000
v 0.079520 0.980003 -0.250000
v 0.079520 0.980003 0.250000
v 0.092824 1.099607 -0.250000
v 0.092824 1.099607 0.250000
v 0.114531 1.210703 -0.250000
v 0.114531 1.210703 0.250000
v 0.144259 1.312685 -0.250000
v 0.144259 1.312685 0.250000
v 0.181626 1.404945 -0.250000
v 0.181626 1.404945 0.250000
v 0.226250 1.486875 -0.250000
v 0.226250 1.486875 0.250000
v 0.277749 1.557868 -0.250000
v 0.277749 1.557868 0.250000
v 0.335741 1.617315 -0.250000
v 0.335741 1.617315 0.250000
v 0.399844 1.664609 -0.250000
v 0.399844 1.664609 0.250000
v 0.469676 1.699144 -0.250000
v 0.469676 1.699144 0.250000
v 0.544855 1.720310 -0.250000
v 0.544855 1.720310 0.250000
v 0.625000 1.727500 -0.250000
v 0.625000 1.727500 0.250000
v 0.705145 1.720310 -0.250000
v 0.705145 1.720310 0.250000
v 0.780324 1.699144 -0.250000
v 0.780324 1.699144 0.250000
v 0.850156 1.664610 -0.250000
v 0.850156 1.664610 0.250000
v 0.914259 1.617315 -0.250000
v 0.914259 1.617315 0.250000
v 0.972251 1.557868 -0.250000
v 0.972251 1.557868 0.250000
v 1.023750 1.486875 -0.250000
v 1.023750 1.486875 0.250000
v 1.068374 1.404945 -0.250000
v 1.068374 1.404945 0.250000
v 1.105741 1.312685 -0.250000
v 1.105741 1.312685 0.250000
v 1.135469 1.210703 -0.250000
v 1.135469 1.210703 0.250000
v 1.157176 1.099607 -0.250000
v 1.157176 1.099607 0.250000
v 1.170480 0.980003 -0.250000
v 1.170480 0.980003 0.250000
v 1.175000 0.852500 -0.250000
v 1.175000 0.852500 0.250000
v 1.170480 0.724997 -0.250000
v 1.170480 0.724997 0.250000
v 1.157176 0.605394 -0.250000
v 1.157176 0.605394 0.250000
v 1.135469 0.494297 -0.250000
v 1.135469 0.494297 0.250000
v 1.105741 0.392315 -0.250000
v 1.105741 0.392315 0.250000
v 1.068374 0.300055 -0.250000
v 1.068374 0.300055 0.250000
v 1.023750 0.218125 -0.250000
v 1.023750 0.218125 0.250000
v 0.972251 0.147133 -0.250000
v 0.972251 0.147133 0.250000
v 0.914259 0.087685 -0.250000
v 0.914259 0.087685 0.250000
v 0.850156 0.040391 -0.250000
v 0.850156 0.040391 0.250000
v 0.780324 0.005856 -0.250000
v 0.780324 0.005856 0.250000
v 0.705145 -0.015310 -0.250000
v 0.705145 -0.015310 0.250000
v 0.625000 -0.022500 -0.250000
v 0.625000 -0.022500 0.250000
v 0.579086 1.489997 -0.250000
v 0.579086 1.489997 0.250000
v 0.536435 1.475185 -0.250000
v 0.536435 1.475185 0.250000
v 0.497188 1.450859 -0.250000
v 0.497188 1.450859 0.250000
v 0.461482 1.417315 -0.250000
v 0.461482 1.417315 0.250000
v 0.429456 1.374847 -0.250000
v 0.429456 1.374847 0.250000
v 0.401250 1.323750 -0.250000
v 0.401250 1.323750 0.250000
v 0.377002 1.264320 -0.250000
v 0.377002 1.264320 0.250000
v 0.356852 1.196852 -0.250000
v 0.356852 1.196852 0.250000
v 0.340937 1.121641 -0.250000
v 0.340937 1.121641 0.250000
v 0.329398 1.038982 -0.250000
v 0.329398 1.038982 0.250000
v 0.322373 0.949170 -0.250000
v 0.322373 0.949170 0.250000
v 0.320000 0.852500 -0.250000
v 0.320000 0.852500 0.250000
v 0.322373 0.755831 -0.250000
v 0.322373 0.755831 0.250000
v 0.329398 0.666019 -0.250000
v 0.329398 0.666019 0.250000
v 0.340937 0.583359 -0.250000
v 0.340937 0.583359 0.250000
v 0.356852 0.508148 -0.250000
v 0.356852 0.508148 0.250000
v 0.377002 0.440680 -0.250000
v 0.377002 0.440680 0.250000
v 0.401250 0.381250 -0.250000
v 0.401250 0.381250 0.250000
v 0.429456 0.330153 -0.250000
v 0.429456 0.330153 0.250000
v 0.461481 0.287685 -0.250000
v 0.461481 0.287685 0.250000
v 0.497187 0.254141 -0.250000
v 0.497187 0.254141 0.250000
v 0.536435 0.229815 -0.250000
v 0.536435 0.229815 0.250000
v 0.579086 0.215003 -0.250000
v 0.579086 0.215003 0.250000
v 0.625000 0.210000 -0.250000
v 0.625000 0.210000 0.250000
v 0.670914 0.215003 -0.250000
v 0.670914 0.215003 0.250000
v 0.713565 0.229815 -0.250000
v 0.713565 0.229815 0.250000
v 0.752813 0.254141 -0.250000
v 0.752813 0.254141 0.250000
v 0.788518 0.287685 -0.250000
v 0.788518 0.287685 0.250000
v 0.820544 0.330153 -0.250000
v 0.820544 0.330153 0.250000
v 0.848750 0.381250 -0.250000
v 0.848750 0.381250 0.250000
v 0.872998 0.440680 -0.250000
v 0.872998 0.440680 0.250000
v 0.893148 0.508148 -0.250000
v 0.893148 0.508148 0.250000
v 0.909063 0.583359 -0.250000
v 0.909063 0.583359 0.250000
v 0.920602 0.666019 -0.250000
v 0.920602 0.666019 0.250000
v 0.927627 0.755830 -0.250000
v 0.927627 0.755830 0.250000
v 0.930000 0.852500 -0.250000
v 0.930000 0.852500 0.250000
v 0.927627 0.949169 -0.250000
v 0.927627 0.949169 0.250000
v 0.920602 1.038981 -0.250000
v 0.920602 1.038981 0.250000
v 0.909063 1.121641 -0.250000
v 0.909063 1.121641 0.250000
v 0.893148 1.196852 -0.250000
v 0.893148 1.196852 0.250000
v 0.872998 1.264320 -0.250000
v 0.872998 1.264320 0.250000
v 0.848750 1.323750 -0.250000
v 0.848750 1.323750 0.250000
v 0.820544 1.374847 -0.250000
v 0.820544 1.374847 0.250000
v 0.788519 1.417315 -0.250000
v 0.788519 1.417315 0.250000
v 0.752813 1.450859 -0.250000
v 0.752813 1.450859 0.250000
v 0.713565 1.475185 -0.250000
v 0.713565 1.475185 0.250000
v 0.670914 1.489997 -0.250000
v 0.670914 1.489997 0.250000
v 0.625000 1.495000 -0.250000
v 0.625000 1.495000 0.250000
v 1.485000 0.072500 -0.250000
v 1.485000 0.072500 0.250000
v 2.110000 1.472500 -0.250000
v 2.110000 1.472500 0.250000
v 1.372500 1.472500 -0.250000
v 1.372500 1.472500 0.250000
v 1.372500 1.705000 -0.250000
v 1.372500 1.705000 0.250000
v 2.475000 1.705000 -0.250000
v 2.475000 1.705000 0.250000
v 1.702500 -0.022500 -0.250000
v 1.702500 -0.022500 0.250000
vn 0.0000 -0.0000 1.0000
vn 0.0000 0.0000 -1.0000
vn -0.1809 -0.9835 0.0000
vn -0.3587 -0.9334 0.0000
vn -0.5205 -0.8538 0.0000
vn -0.6569 -0.7540 0.0000
vn -0.7646 -0.6444 0.0000
vn -0.8455 -0.5338 0.0000
vn -0.9040 -0.4275 0.0000
vn -0.9446 -0.3280 0.0000
vn -0.9717 -0.2360 0.0000
vn -0.9885 -0.1513 0.0000
vn -0.9973 -0.0730 0.0000
vn -1.0000 0.0000 0.0000
vn -0.9973 0.0730 0.0000
vn -0.9885 0.1513 0.0000
vn -0.9717 0.2360 0.0000
vn -0.9446 0.3280 0.0000
vn -0.9040 0.4275 0.0000
vn -0.8455 0.5338 0.0000
vn -0.7646 0.6444 0.0000
vn -0.6569 0.7540 0.0000
vn -0.5205 0.8538 0.0000
vn -0.3587 0.9334 0.0000
vn -0.1809 0.9835 0.0000
vn 0.0000 1.0000 0.0000
vn 0.1809 0.9835 0.0000
vn 0.3587 0.9334 0.0000
vn 0.5205 0.8538 0.0000
vn 0.6569 0.7540 0.0000
vn 0.7646 0.6444 0.0000
vn 0.8455 0.5338 0.0000
vn 0.9040 0.4275 0.0000
vn 0.9446 0.3280 0.0000
vn 0.9717 0.2360 0.0000
vn 0.9885 0.1513 0.0000
vn 0.9973 0.0730 0.0000
vn 1.0000 0.0000 0.0000
vn 0.9973 -0.0730 0.0000
vn 0.9885 -0.1513 0.0000
vn 0.9717 -0.2360 0.0000
vn 0.9446 -0.3280 0.0000
vn 0.9040 -0.4275 0.0000
vn 0.8455 -0.5338 0.0000
vn 0.7646 -0.6444 0.0000
vn 0.6569 -0.7540 0.0000
vn 0.5205 -0.8538 0.0000
vn 0.3587 -0.9334 0.0000
vn 0.1809 -0.9835 0.0000
vn 0.0000 -1.0000 0.0000
vn 0.2196 -0.9756 0.0000
vn 0.4300 -0.9028 0.0000
vn 0.6088 -0.7933 0.0000
vn 0.7443 -0.6679 0.0000
vn 0.8390 -0.5440 0.0000
vn 0.9022 -0.4313 0.0000
vn 0.9431 -0.3323 0.0000
vn 0.9691 -0.2468 0.0000
vn 0.9850 -0.1727 0.0000
vn 0.9941 -0.1082 0.0000
vn 0.9987 -0.0513 0.0000
vn 0.9987 0.0513 0.0000
vn 0.9941 0.1082 0.0000
vn 0.9850 0.1727 0.0000
vn 0.9691 0.2468 0.0000
vn 0.9431 0.3323 0.0000
vn 0.9022 0.4313 0.0000
vn 0.8390 0.5440 0.0000
vn 0.7443 0.6679 0.0000
vn 0.6088 0.7933 0.0000
vn 0.4300 0.9028 0.0000
vn 0.2196 0.9756 0.0000
vn -0.2196 0.9756 0.0000
vn -0.4300 0.9028 0.0000
vn -0.6088 0.7933 0.0000
vn -0.7443 0.6679 0.0000
vn -0.8390 0.5440 0.0000
vn -0.9022 0.4313 0.0000
vn -0.9431 0.3323 0.0000
vn -0.9691 0.2468 0.0000
vn -0.9850 0.1727 0.0000
vn -0.9941 0.1082 0.0000
vn -0.9987 0.0513 0.0000
vn -0.9987 -0.0513 0.0000
vn -0.9941 -0.1082 0.0000
vn -0.9850 -0.1727 0.0000
vn -0.9691 -0.2468 0.0000
vn -0.9431 -0.3323 0.0000
vn -0.9022 -0.4313 0.0000
vn -0.8390 -0.5440 0.0000
vn -0.7443 -0.6679 0.0000
vn -0.6088 -0.7933 0.0000
vn -0.4300 -0.9028 0.0000
vn -0.2196 -0.9756 0.0000
vn -0.9325 -0.3612 0.0000
vn -0.8389 -0.5442 0.0000
vn -0.7071 -0.7071 0.0000
vn -0.7071 0.7071 0.0000
vn 0.8391 0.5439 0.0000
vn 0.3609 -0.9326 0.0000
usemtl OR_Milk_Chocolate
s off
f 3//1 5//1 4//1
f 3//1 2//1 5//1
f 2//1 6//1 5//1
f 1//1 6//1 2//1
f 29//1 31//1 30//1
f 29//1 32//1 31//1
f 28//1 32//1 29//1
f 28//1 33//1 32//1
f 27//1 33//1 28//1
f 27//1 34//1 33//1
f 26//1 34//1 27//1
f 25//1 34//1 26//1
f 25//1 35//1 34//1
f 24//1 35//1 25//1
f 24//1 102//1 35//1
f 102//1 36//1 35//1
f 24//1 55//1 102//1
f 101//1 36//1 102//1
f 24//1 56//1 55//1
f 100//1 36//1 101//1
f 23//1 56//1 24//1
f 100//1 37//1 36//1
f 23//1 57//1 56//1
f 99//1 37//1 100//1
f 23//1 58//1 57//1
f 98//1 37//1 99//1
f 23//1 59//1 58//1
f 97//1 37//1 98//1
f 22//1 59//1 23//1
f 97//1 38//1 37//1
f 22//1 60//1 59//1
f 96//1 38//1 97//1
f 22//1 61//1 60//1
f 95//1 38//1 96//1
f 21//1 61//1 22//1
f 95//1 39//1 38//1
f 21//1 62//1 61//1
f 94//1 39//1 95//1
f 20//1 62//1 21//1
f 94//1 40//1 39//1
f 20//1 63//1 62//1
f 93//1 40//1 94//1
f 20//1 64//1 63//1
f 92//1 40//1 93//1
f 19//1 64//1 20//1
f 92//1 41//1 40//1
f 19//1 65//1 64//1
f 91//1 41//1 92//1
f 18//1 65//1 19//1
f 91//1 42//1 41//1
f 18//1 66//1 65//1
f 90//1 42//1 91//1
f 17//1 66//1 18//1
f 17//1 67//1 66//1
f 89//1 42//1 90//1
f 89//1 43//1 42//1
f 17//1 68//1 67//1
f 88//1 43//1 89//1
f 16//1 68//1 17//1
f 88//1 44//1 43//1
f 16//1 69//1 68//1
f 87//1 44//1 88//1
f 15//1 69//1 16//1
f 87//1 45//1 44//1
f 86//1 45//1 87//1
f 15//1 70//1 69//1
f 85//1 45//1 86//1
f 15//1 71//1 70//1
f 14//1 71//1 15//1
f 85//1 46//1 45//1
f 84//1 46//1 85//1
f 14//1 72//1 71//1
f 13//1 72//1 14//1
f 84//1 47//1 46//1
f 83//1 47//1 84//1
f 13//1 73//1 72//1
f 82//1 47//1 83//1
f 13//1 74//1 73//1
f 12//1 74//1 13//1
f 82//1 48//1 47//1
f 81//1 48//1 82//1
f 12//1 75//1 74//1
f 80//1 48//1 81//1
f 12//1 76//1 75//1
f 79//1 48//1 80//1
f 12//1 77//1 76//1
f 11//1 77//1 12//1
f 79//1 49//1 48//1
f 78//1 49//1 79//1
f 11//1 78//1 77//1
f 11//1 49//1 78//1
f 10//1 49//1 11//1
f 10//1 50//1 49//1
f 9//1 50//1 10//1
f 9//1 51//1 50//1
f 8//1 51//1 9//1
f 8//1 52//1 51//1
f 7//1 52//1 8//1
f 7//1 53//1 52//1
f 54//1 53//1 7//1
f 107//2 105//2 106//2
f 104//2 105//2 107//2
f 108//2 104//2 107//2
f 108//2 103//2 104//2
f 133//2 131//2 132//2
f 134//2 131//2 133//2
f 134//2 130//2 131//2
f 135//2 130//2 134//2
f 135//2 129//2 130//2
f 136//2 129//2 135//2
f 136//2 128//2 129//2
f 136//2 127//2 128//2
f 137//2 127//2 136//2
f 137//2 126//2 127//2
f 204//2 126//2 137//2
f 138//2 204//2 137//2
f 157//2 126//2 204//2
f 138//2 203//2 204//2
f 158//2 126//2 157//2
f 138//2 202//2 203//2
f 158//2 125//2 126//2
f 139//2 202//2 138//2
f 159//2 125//2 158//2
f 139//2 201//2 202//2
f 160//2 125//2 159//2
f 139//2 200//2 201//2
f 161//2 125//2 160//2
f 139//2 199//2 200//2
f 161//2 124//2 125//2
f 140//2 199//2 139//2
f 162//2 124//2 161//2
f 140//2 198//2 199//2
f 163//2 124//2 162//2
f 140//2 197//2 198//2
f 163//2 123//2 124//2
f 141//2 197//2 140//2
f 164//2 123//2 163//2
f 141//2 196//2 197//2
f 164//2 122//2 123//2
f 142//2 196//2 141//2
f 165//2 122//2 164//2
f 142//2 195//2 196//2
f 166//2 122//2 165//2
f 142//2 194//2 195//2
f 166//2 121//2 122//2
f 143//2 194//2 142//2
f 167//2 121//2 166//2
f 143//2 193//2 194//2
f 167//2 120//2 121//2
f 144//2 193//2 143//2
f 168//2 120//2 167//2
f 144//2 192//2 193//2
f 168//2 119//2 120//2
f 169//2 119//2 168//2
f 144//2 191//2 192//2
f 145//2 191//2 144//2
f 170//2 119//2 169//2
f 145//2 190//2 191//2
f 170//2 118//2 119//2
f 146//2 190//2 145//2
f 171//2 118//2 170//2
f 146//2 189//2 190//2
f 171//2 117//2 118//2
f 147//2 189//2 146//2
f 147//2 188//2 189//2
f 172//2 117//2 171//2
f 147//2 187//2 188//2
f 173//2 117//2 172//2
f 173//2 116//2 117//2
f 148//2 187//2 147//2
f 148//2 186//2 187//2
f 174//2 116//2 173//2
f 174//2 115//2 116//2
f 149//2 186//2 148//2
f 149//2 185//2 186//2
f 175//2 115//2 174//2
f 149//2 184//2 185//2
f 176//2 115//2 175//2
f 176//2 114//2 115//2
f 150//2 184//2 149//2
f 150//2 183//2 184//2
f 177//2 114//2 176//2
f 150//2 182//2 183//2
f 178//2 114//2 177//2
f 150//2 181//2 182//2
f 179//2 114//2 178//2
f 179//2 113//2 114//2
f 151//2 181//2 150//2
f 151//2 180//2 181//2
f 180//2 113//2 179//2
f 151//2 113//2 180//2
f 151//2 112//2 113//2
f 152//2 112//2 151//2
f 152//2 111//2 112//2
f 153//2 111//2 152//2
f 153//2 110//2 111//2
f 154//2 110//2 153//2
f 154//2 109//2 110//2
f 155//2 109//2 154//2
f 155//2 156//2 109//2
s 1
f 206//3 208//4 207//4 205//3
f 208//4 210//5 209//5 207//4
f 210//5 212//6 211//6 209//5
f 212//6 214//7 213//7 211//6
f 214//7 216//8 215//8 213//7
f 216//8 218//9 217//9 215//8
f 218//9 220//10 219//10 217//9
f 220//10 222//11 221//11 219//10
f 222//11 224//12 223//12 221//11
f 224//12 226//13 225//13 223//12
f 226//13 228//14 227//14 225//13
f 228//14 230//15 229//15 227//14
f 230//15 232//16 231//16 229//15
f 232//16 234//17 233//17 231//16
f 234//17 236//18 235//18 233//17
f 236//18 238//19 237//19 235//18
f 238//19 240//20 239//20 237//19
f 240//20 242//21 241//21 239//20
f 242//21 244//22 243//22 241//21
f 244//22 246//23 245//23 243//22
f 246//23 248//24 247//24 245//23
f 248//24 250//25 249//25 247//24
f 250//25 252//26 251//26 249//25
f 252//26 254//27 253//27 251//26
f 254//27 256//28 255//28 253//27
f 256//28 258//29 257//29 255//28
f 258//29 260//30 259//30 257//29
f 260//30 262//31 261//31 259//30
f 262//31 264//32 263//32 261//31
f 264//32 266//33 265//33 263//32
f 266//33 268//34 267//34 265//33
f 268//34 270//35 269//35 267//34
f 270//35 272//36 271//36 269//35
f 272//36 274//37 273//37 271//36
f 274//37 276//38 275//38 273//37
f 276//38 278//39 277//39 275//38
f 278//39 280//40 279//40 277//39
f 280//40 282//41 281//41 279//40
f 282//41 284//42 283//42 281//41
f 284//42 286//43 285//43 283//42
f 286//43 288//44 287//44 285//43
f 288//44 290//45 289//45 287//44
f 290//45 292//46 291//46 289//45
f 292//46 294//47 293//47 291//46
f 294//47 296//48 295//48 293//47
f 296//48 298//49 297//49 295//48
f 298//49 300//50 299//50 297//49
f 300//50 206//3 205//3 299//50
f 302//51 304//52 303//52 301//51
f 304//52 306//53 305//53 303//52
f 306//53 308//54 307//54 305//53
f 308//54 310//55 309//55 307//54
f 310//55 312//56 311//56 309//55
f 312//56 314//57 313//57 311//56
f 314//57 316//58 315//58 313//57
f 316//58 318//59 317//59 315//58
f 318//59 320//60 319//60 317//59
f 320//60 322//61 321//61 319//60
f 322//61 324//38 323//38 321//61
f 324//38 326//62 325//62 323//38
f 326//62 328//63 327//63 325//62
f 328//63 330//64 329//64 327//63
f 330//64 332//65 331//65 329//64
f 332//65 334//66 333//66 331//65
f 334//66 336//67 335//67 333//66
f 336//67 338//68 337//68 335//67
f 338//68 340//69 339//69 337//68
f 340//69 342//70 341//70 339//69
f 342//70 344//71 343//71 341//70
f 344//71 346//72 345//72 343//71
f 346//72 348//26 347//26 345//72
f 348//26 350//73 349//73 347//26
f 350//73 352//74 351//74 349//73
f 352//74 354//75 353//75 351//74
f 354//75 356//76 355//76 353//75
f 356//76 358//77 357//77 355//76
f 358//77 360//78 359//78 357//77
f 360//78 362//79 361//79 359//78
f 362//79 364//80 363//80 361//79
f 364//80 366//81 365//81 363//80
f 366//81 368//82 367//82 365//81
f 368//82 370//83 369//83 367//82
f 370//83 372//14 371//14 369//83
f 372//14 374//84 373//84 371//14
f 374//84 376//85 375//85 373//84
f 376//85 378//86 377//86 375//85
f 378//86 380//87 379//87 377//86
f 380//87 382//88 381//88 379//87
f 382//88 384//89 383//89 381//88
f 384//89 386//90 385//90 383//89
f 386//90 388//91 387//91 385//90
f 388//91 390//92 389//92 387//91
f 390//92 392//93 391//93 389//92
f 392//93 394//94 393//94 391//93
f 394//94 396//50 395//50 393//94
f 396//50 302//51 301//51 395//50
f 398//95 400//96 399//96 397//95
f 400//96 402//97 401//97 399//96
f 402//97 404//98 403//98 401//97
f 404//98 406//99 405//99 403//98
f 406//99 408//100 407//100 405//99
f 408//100 398//95 397//95 407//100
